<svg xmlns="http://www.w3.org/2000/svg" width="18" height="15" viewBox="0 0 18 15" fill="none">
  <path d="M17.8496 8.34961L16.8496 8.34961L16.8496 9.34961L15.8496 9.34961L15.8496 10.3496L13.8496 10.3496L13.8496 12.3496L11.8496 12.3496L11.8496 14.3496L9.15039 14.3496L9.15039 12.6504L10.1504 12.6504L10.1504 10.6504L12.1504 10.6504L12.1504 8.34961L0.15039 8.34961L0.15039 6.65039L12.1504 6.65039L12.1504 4.34961L10.1504 4.34961L10.1504 2.34961L9.15039 2.34961L9.15039 0.65039L11.8496 0.65039L11.8496 2.65039L13.8496 2.65039L13.8496 4.65039L15.8496 4.65039L15.8496 5.65039L16.8496 5.65039L16.8496 6.65039L17.8496 6.65039L17.8496 8.34961Z" fill="#F9F9F9" stroke="#1F37E1" stroke-width="0.3"/>
</svg>