<svg width="50" height="51" viewBox="0 0 50 51" fill="none" xmlns="http://www.w3.org/2000/svg">
<g filter="url(#filter0_d_12650_13978)">
<path d="M9 2.43262V5.43262H6V8.43262H3V36.4326H6V39.4326H9V42.4326H12V2.43262H9Z" fill="#3D3D3D"/>
</g>
<path d="M9 5.43262V2.43262H12V5.43262V8.43262H9V11.4326H6V33.4326H9V36.4326H12V39.4326V42.4326H9V39.4326H6V36.4326H3V8.43262H6V5.43262H9Z" fill="#3D3D3D"/>
<g filter="url(#filter1_d_12650_13978)">
<rect width="22" height="40" transform="translate(12 2.43262)" fill="#3D3D3D"/>
<rect x="12" y="2.43262" width="22" height="3" fill="#3D3D3D"/>
<path d="M24.0286 12.4326C25.1536 12.4356 25.7246 12.4416 26.2176 12.4556L26.4116 12.4626C26.6356 12.4706 26.8566 12.4806 27.1236 12.4926C28.1876 12.5426 28.9136 12.7106 29.5506 12.9576C30.2106 13.2116 30.7666 13.5556 31.3226 14.1106C31.8313 14.6103 32.2248 15.2151 32.4756 15.8826C32.7226 16.5196 32.8906 17.2456 32.9406 18.3106C32.9526 18.5766 32.9626 18.7976 32.9706 19.0226L32.9766 19.2166C32.9916 19.7086 32.9976 20.2796 32.9996 21.4046L33.0006 22.1506V23.4606C33.003 24.19 32.9953 24.9194 32.9776 25.6486L32.9716 25.8426C32.9636 26.0676 32.9536 26.2886 32.9416 26.5546C32.8916 27.6196 32.7216 28.3446 32.4756 28.9826C32.2248 29.6501 31.8313 30.2549 31.3226 30.7546C30.8228 31.2633 30.2181 31.6568 29.5506 31.9076C28.9136 32.1546 28.1876 32.3226 27.1236 32.3726L26.4116 32.4026L26.2176 32.4086C25.7246 32.4226 25.1536 32.4296 24.0286 32.4316L23.2826 32.4326H21.9736C21.2438 32.4352 20.5141 32.4275 19.7846 32.4096L19.5906 32.4036C19.3532 32.3946 19.1158 32.3843 18.8786 32.3726C17.8146 32.3226 17.0886 32.1546 16.4506 31.9076C15.7834 31.6567 15.179 31.2632 14.6796 30.7546C14.1705 30.255 13.7767 29.6502 13.5256 28.9826C13.2786 28.3456 13.1106 27.6196 13.0606 26.5546L13.0306 25.8426L13.0256 25.6486C13.0071 24.9194 12.9988 24.19 13.0006 23.4606V21.4046C12.9978 20.6752 13.0051 19.9458 13.0226 19.2166L13.0296 19.0226C13.0376 18.7976 13.0476 18.5766 13.0596 18.3106C13.1096 17.2456 13.2776 16.5206 13.5246 15.8826C13.7763 15.2148 14.1708 14.6101 14.6806 14.1106C15.1797 13.6022 15.7838 13.2087 16.4506 12.9576C17.0886 12.7106 17.8136 12.5426 18.8786 12.4926C19.1446 12.4806 19.3666 12.4706 19.5906 12.4626L19.7846 12.4566C20.5138 12.4388 21.2432 12.4312 21.9726 12.4336L24.0286 12.4326ZM23.0006 17.4326C21.6745 17.4326 20.4027 17.9594 19.465 18.8971C18.5274 19.8348 18.0006 21.1065 18.0006 22.4326C18.0006 23.7587 18.5274 25.0305 19.465 25.9682C20.4027 26.9058 21.6745 27.4326 23.0006 27.4326C24.3267 27.4326 25.5984 26.9058 26.5361 25.9682C27.4738 25.0305 28.0006 23.7587 28.0006 22.4326C28.0006 21.1065 27.4738 19.8348 26.5361 18.8971C25.5984 17.9594 24.3267 17.4326 23.0006 17.4326ZM23.0006 19.4326C23.3945 19.4326 23.7847 19.5101 24.1487 19.6608C24.5127 19.8115 24.8434 20.0324 25.122 20.3109C25.4007 20.5895 25.6217 20.9202 25.7725 21.2841C25.9233 21.6481 26.001 22.0382 26.0011 22.4321C26.0011 22.8261 25.9236 23.2162 25.7729 23.5802C25.6222 23.9442 25.4013 24.275 25.1227 24.5536C24.8442 24.8322 24.5135 25.0532 24.1496 25.2041C23.7856 25.3549 23.3955 25.4326 23.0016 25.4326C22.2059 25.4326 21.4429 25.1165 20.8802 24.5539C20.3176 23.9913 20.0016 23.2283 20.0016 22.4326C20.0016 21.637 20.3176 20.8739 20.8802 20.3113C21.4429 19.7487 22.2059 19.4326 23.0016 19.4326M28.2516 15.9326C27.92 15.9326 27.6021 16.0643 27.3677 16.2987C27.1333 16.5332 27.0016 16.8511 27.0016 17.1826C27.0016 17.5141 27.1333 17.8321 27.3677 18.0665C27.6021 18.3009 27.92 18.4326 28.2516 18.4326C28.5831 18.4326 28.901 18.3009 29.1355 18.0665C29.3699 17.8321 29.5016 17.5141 29.5016 17.1826C29.5016 16.8511 29.3699 16.5332 29.1355 16.2987C28.901 16.0643 28.5831 15.9326 28.2516 15.9326Z" fill="#B2B2B2"/>
<rect x="12" y="39.4326" width="22" height="3" fill="#3D3D3D"/>
</g>
<g filter="url(#filter2_d_12650_13978)">
<path d="M37 42.4326V39.4326H40V36.4326H43V8.43262H40V5.43262H37V2.43262H34V42.4326H37Z" fill="#3D3D3D"/>
</g>
<path d="M37 39.4326V42.4326H34V39.4326V36.4326H37V33.4326H40V11.4326H37V8.43262H34V5.43262V2.43262H37V5.43262H40V8.43262H43V36.4326H40V39.4326H37Z" fill="#3D3D3D"/>
<defs>
<filter id="filter0_d_12650_13978" x="3" y="2.43262" width="12" height="43" filterUnits="userSpaceOnUse" color-interpolation-filters="sRGB">
<feFlood flood-opacity="0" result="BackgroundImageFix"/>
<feColorMatrix in="SourceAlpha" type="matrix" values="0 0 0 0 0 0 0 0 0 0 0 0 0 0 0 0 0 0 127 0" result="hardAlpha"/>
<feOffset dx="3" dy="3"/>
<feComposite in2="hardAlpha" operator="out"/>
<feColorMatrix type="matrix" values="0 0 0 0 0.164682 0 0 0 0 0.164682 0 0 0 0 0.164682 0 0 0 1 0"/>
<feBlend mode="normal" in2="BackgroundImageFix" result="effect1_dropShadow_12650_13978"/>
<feBlend mode="normal" in="SourceGraphic" in2="effect1_dropShadow_12650_13978" result="shape"/>
</filter>
<filter id="filter1_d_12650_13978" x="1" y="2.43262" width="47" height="43" filterUnits="userSpaceOnUse" color-interpolation-filters="sRGB">
<feFlood flood-opacity="0" result="BackgroundImageFix"/>
<feColorMatrix in="SourceAlpha" type="matrix" values="0 0 0 0 0 0 0 0 0 0 0 0 0 0 0 0 0 0 127 0" result="hardAlpha"/>
<feOffset dx="3" dy="3"/>
<feComposite in2="hardAlpha" operator="out"/>
<feColorMatrix type="matrix" values="0 0 0 0 0.164682 0 0 0 0 0.164682 0 0 0 0 0.164682 0 0 0 1 0"/>
<feBlend mode="normal" in2="BackgroundImageFix" result="effect1_dropShadow_12650_13978"/>
<feBlend mode="normal" in="SourceGraphic" in2="effect1_dropShadow_12650_13978" result="shape"/>
</filter>
<filter id="filter2_d_12650_13978" x="34" y="2.43262" width="12" height="43" filterUnits="userSpaceOnUse" color-interpolation-filters="sRGB">
<feFlood flood-opacity="0" result="BackgroundImageFix"/>
<feColorMatrix in="SourceAlpha" type="matrix" values="0 0 0 0 0 0 0 0 0 0 0 0 0 0 0 0 0 0 127 0" result="hardAlpha"/>
<feOffset dx="3" dy="3"/>
<feComposite in2="hardAlpha" operator="out"/>
<feColorMatrix type="matrix" values="0 0 0 0 0.164682 0 0 0 0 0.164682 0 0 0 0 0.164682 0 0 0 1 0"/>
<feBlend mode="normal" in2="BackgroundImageFix" result="effect1_dropShadow_12650_13978"/>
<feBlend mode="normal" in="SourceGraphic" in2="effect1_dropShadow_12650_13978" result="shape"/>
</filter>
</defs>
</svg>
