<svg width="50" height="51" viewBox="0 0 50 51" fill="none" xmlns="http://www.w3.org/2000/svg">
<g filter="url(#filter0_d_12650_13975)">
<path d="M9 2.43262V5.43262H6V8.43262H3V36.4326H6V39.4326H9V42.4326H12V2.43262H9Z" fill="#3D3D3D"/>
</g>
<path d="M9 5.43262V2.43262H12V5.43262V8.43262H9V11.4326H6V33.4326H9V36.4326H12V39.4326V42.4326H9V39.4326H6V36.4326H3V8.43262H6V5.43262H9Z" fill="#3D3D3D"/>
<g filter="url(#filter1_d_12650_13975)">
<rect width="22" height="40" transform="translate(12 2.43262)" fill="#3D3D3D"/>
<rect x="12" y="2.43262" width="22" height="3" fill="#3D3D3D"/>
<path d="M17.3266 14.6557C17.3263 15.245 17.0919 15.8101 16.675 16.2266C16.258 16.6431 15.6928 16.8769 15.1035 16.8766C14.5141 16.8763 13.9491 16.6419 13.5326 16.225C13.1161 15.8081 12.8823 15.2428 12.8826 14.6535C12.8829 14.0642 13.1172 13.4991 13.5342 13.0826C13.9511 12.6661 14.5164 12.4323 15.1057 12.4326C15.695 12.4329 16.26 12.6673 16.6765 13.0842C17.093 13.5011 17.3268 14.0664 17.3266 14.6557ZM17.3932 18.522H12.9492V32.4317H17.3932V18.522ZM24.4147 18.522H19.9929V32.4317H24.3703V25.1324C24.3703 21.0662 29.6697 20.6884 29.6697 25.1324V32.4317H34.0582V23.6215C34.0582 16.7666 26.2145 17.0221 24.3703 20.3885L24.4147 18.522Z" fill="#B2B2B2"/>
<rect x="12" y="39.4326" width="22" height="3" fill="#3D3D3D"/>
</g>
<g filter="url(#filter2_d_12650_13975)">
<path d="M37 42.4326V39.4326H40V36.4326H43V8.43262H40V5.43262H37V2.43262H34V42.4326H37Z" fill="#3D3D3D"/>
</g>
<path d="M37 39.4326V42.4326H34V39.4326V36.4326H37V33.4326H40V11.4326H37V8.43262H34V5.43262V2.43262H37V5.43262H40V8.43262H43V36.4326H40V39.4326H37Z" fill="#3D3D3D"/>
<defs>
<filter id="filter0_d_12650_13975" x="3" y="2.43262" width="12" height="43" filterUnits="userSpaceOnUse" color-interpolation-filters="sRGB">
<feFlood flood-opacity="0" result="BackgroundImageFix"/>
<feColorMatrix in="SourceAlpha" type="matrix" values="0 0 0 0 0 0 0 0 0 0 0 0 0 0 0 0 0 0 127 0" result="hardAlpha"/>
<feOffset dx="3" dy="3"/>
<feComposite in2="hardAlpha" operator="out"/>
<feColorMatrix type="matrix" values="0 0 0 0 0.164682 0 0 0 0 0.164682 0 0 0 0 0.164682 0 0 0 1 0"/>
<feBlend mode="normal" in2="BackgroundImageFix" result="effect1_dropShadow_12650_13975"/>
<feBlend mode="normal" in="SourceGraphic" in2="effect1_dropShadow_12650_13975" result="shape"/>
</filter>
<filter id="filter1_d_12650_13975" x="1" y="2.43262" width="47" height="43" filterUnits="userSpaceOnUse" color-interpolation-filters="sRGB">
<feFlood flood-opacity="0" result="BackgroundImageFix"/>
<feColorMatrix in="SourceAlpha" type="matrix" values="0 0 0 0 0 0 0 0 0 0 0 0 0 0 0 0 0 0 127 0" result="hardAlpha"/>
<feOffset dx="3" dy="3"/>
<feComposite in2="hardAlpha" operator="out"/>
<feColorMatrix type="matrix" values="0 0 0 0 0.164682 0 0 0 0 0.164682 0 0 0 0 0.164682 0 0 0 1 0"/>
<feBlend mode="normal" in2="BackgroundImageFix" result="effect1_dropShadow_12650_13975"/>
<feBlend mode="normal" in="SourceGraphic" in2="effect1_dropShadow_12650_13975" result="shape"/>
</filter>
<filter id="filter2_d_12650_13975" x="34" y="2.43262" width="12" height="43" filterUnits="userSpaceOnUse" color-interpolation-filters="sRGB">
<feFlood flood-opacity="0" result="BackgroundImageFix"/>
<feColorMatrix in="SourceAlpha" type="matrix" values="0 0 0 0 0 0 0 0 0 0 0 0 0 0 0 0 0 0 127 0" result="hardAlpha"/>
<feOffset dx="3" dy="3"/>
<feComposite in2="hardAlpha" operator="out"/>
<feColorMatrix type="matrix" values="0 0 0 0 0.164682 0 0 0 0 0.164682 0 0 0 0 0.164682 0 0 0 1 0"/>
<feBlend mode="normal" in2="BackgroundImageFix" result="effect1_dropShadow_12650_13975"/>
<feBlend mode="normal" in="SourceGraphic" in2="effect1_dropShadow_12650_13975" result="shape"/>
</filter>
</defs>
</svg>
