<svg xmlns="http://www.w3.org/2000/svg" width="152" height="35" viewBox="0 0 152 35" fill="none">
  <g clip-path="url(#clip0_12174_119354)">
    <path d="M101.077 2.50418H98.7109V4.87046H101.077V2.50418Z" fill="#080F28"/>
    <path d="M101.077 4.86954H98.7109V7.23581H101.077V4.86954Z" fill="#05135B"/>
    <path d="M4.73346 2.5043H2.36719V4.87058H4.73346V2.5043Z" fill="#080F28"/>
    <path d="M4.73346 4.87149H2.36719V7.23777H4.73346V4.87149Z" fill="#05135B"/>
    <path d="M34.4908 2.58829H32.168V4.87014H34.4908V2.58829Z" fill="#05135B"/>
    <path d="M4.73346 32.3363H2.36719V34.7026H4.73346V32.3363Z" fill="#05135B"/>
    <path d="M2.36627 32.3363H0V34.7026H2.36627V32.3363Z" fill="#100C1A"/>
    <path d="M34.4906 32.3363H32.1328V34.7026H34.4906V32.3363Z" fill="#05135B"/>
    <path d="M36.865 32.3363H34.4902V34.7026H36.865V32.3363Z" fill="#050E2F"/>
    <path d="M101.077 32.3344H98.7109V34.7006H101.077V32.3344Z" fill="#05135B"/>
    <path d="M116.94 32.3363H114.574V34.7026H116.94V32.3363Z" fill="#2A39B8"/>
    <path d="M119.306 32.3363H116.939V34.7026H119.306V32.3363Z" fill="#080C1C"/>
    <path d="M121.673 32.3304H119.307V34.7052H121.673V32.3304Z" fill="#170E19"/>
    <path d="M119.435 25.5199H117.068V27.8862H119.435V25.5199Z" fill="#1F37E1"/>
    <path d="M121.8 25.5199H119.434V27.8862H121.8V25.5199Z" fill="#1F37E1"/>
    <path d="M124.167 25.5238H121.801V27.8901H124.167V25.5238Z" fill="#1B39DE"/>
    <path d="M121.673 29.9652H119.307V32.3363H121.673V29.9652Z" fill="#1F38D3"/>
    <path d="M126.325 7.31091H123.959V9.67719H126.325V7.31091Z" fill="#0D0F0C"/>
    <path d="M124.08 9.67615H117.068V12.0424H124.08V9.67615Z" fill="#1F37E1"/>
    <path d="M124.064 7.23669H121.697V9.67774H124.064V7.23669Z" fill="#1938EA"/>
    <path d="M121.696 4.86954H119.33V7.31059H121.696V4.86954Z" fill="#1F38E0"/>
    <path d="M124.064 4.87149H121.697V7.23777H124.064V4.87149Z" fill="#080F28"/>
    <path d="M121.696 2.50418H119.33V4.87046H121.696V2.50418Z" fill="#080F28"/>
    <path d="M124.064 2.5043H121.697V4.87058H124.064V2.5043Z" fill="#100D16"/>
    <path d="M124.038 29.9672H121.672V32.3334H124.038V29.9672Z" fill="#0C0E1B"/>
    <path d="M121.673 27.5981H119.307V29.9644H121.673V27.5981Z" fill="#2036E0"/>
    <path d="M123.959 27.6019H121.672V29.9682H123.959V27.6019Z" fill="#1B3CDC"/>
    <path d="M126.325 25.5217H123.959V27.8879H126.325V25.5217Z" fill="#13226E"/>
    <path d="M133.212 25.2426H130.846V27.6088H133.212V25.2426Z" fill="#13226E"/>
    <path d="M137.819 29.973H135.453V32.3393H137.819V29.973Z" fill="#2039D4"/>
    <path d="M135.456 32.3402H133.09V34.7065H135.456V32.3402Z" fill="#04101F"/>
    <path d="M135.454 29.973H130.846V32.3393H135.454V29.973Z" fill="#1C37E4"/>
    <path d="M137.82 27.6078H130.846V29.9741H137.82V27.6078Z" fill="#1C37E4"/>
    <path d="M119.435 20.8519H117.068V23.2182H119.435V20.8519Z" fill="#2A35C4"/>
    <path d="M119.435 14.0592H117.068V16.4255H119.435V14.0592Z" fill="#232F93"/>
    <path d="M119.331 2.50418H116.965V4.87046H119.331V2.50418Z" fill="#273ED5"/>
    <path d="M117.069 9.45544H114.703V11.7385H117.069V9.45544Z" fill="#05135B"/>
    <path d="M117.069 11.7386H114.703V14.0591H117.069V11.7386Z" fill="#0C0B09"/>
    <path d="M119.435 16.3402H117.068V20.8521H119.435V16.3402Z" fill="#040C4D"/>
    <path d="M4.73346 7.23669H2.36719V32.3371H4.73346V7.23669Z" fill="#1D39E4"/>
    <path d="M6.99664 2.5043H4.73047V34.7023H6.99664V2.5043Z" fill="#1F37E1"/>
    <path d="M9.25095 16.3558H6.99805V34.7023H9.25095V16.3558Z" fill="#2037DD"/>
    <path d="M11.563 2.50418H6.99805V14.0883H11.563V2.50418Z" fill="#1D38E1"/>
    <path d="M9.25095 14.0883H6.99805V16.3556H9.25095V14.0883Z" fill="#1F37E1"/>
    <path d="M11.5439 32.4105H9.25V34.7044H11.5439V32.4105Z" fill="#001140"/>
    <path d="M41.3818 14.0511H39.0879V16.3451H41.3818V14.0511Z" fill="#0A0E34"/>
    <path d="M41.3818 16.3441H39.0879V18.638H41.3818V16.3441Z" fill="#181F83"/>
    <path d="M41.3818 18.6371H39.0879V20.931H41.3818V18.6371Z" fill="#0A1464"/>
    <path d="M41.3818 20.9301H39.0879V23.224H41.3818V20.9301Z" fill="#0F0D1B"/>
    <path d="M43.6767 9.4574H41.3828V11.7513H43.6767V9.4574Z" fill="#2B4CFF"/>
    <path d="M43.6767 11.7506H41.3828V14.0518H43.6767V11.7506Z" fill="#284CFF"/>
    <path d="M43.6767 14.0511H41.3828V16.3366H43.6767V14.0511Z" fill="#2A48FE"/>
    <path d="M43.6767 16.3383H41.3828V18.6394H43.6767V16.3383Z" fill="#2644FC"/>
    <path d="M43.6767 18.6371H41.3828V20.931H43.6767V18.6371Z" fill="#233EF3"/>
    <path d="M43.6767 20.932H41.3828V23.2259H43.6767V20.932Z" fill="#2134E7"/>
    <path d="M43.6767 23.225H41.3828V25.5189H43.6767V23.225Z" fill="#1A30B8"/>
    <path d="M43.6767 25.5178H41.3828V27.8117H43.6767V25.5178Z" fill="#1A2092"/>
    <path d="M45.9697 9.4574H43.6758V11.7513H45.9697V9.4574Z" fill="#2C4CFF"/>
    <path d="M45.9697 7.16443H43.6758V9.45834H45.9697V7.16443Z" fill="#2D4EFF"/>
    <path d="M48.2646 4.92618H45.9707V7.22009H48.2646V4.92618Z" fill="#2D4EFF"/>
    <path d="M48.2646 4.87149H45.9707V7.1654H48.2646V4.87149Z" fill="#2D4EFF"/>
    <path d="M45.9697 4.86954H43.6758V7.16345H45.9697V4.86954Z" fill="#091A5B"/>
    <path d="M45.9697 2.57852H43.6758V4.87243H45.9697V2.57852Z" fill="#091114"/>
    <path d="M48.2646 2.57852H45.9707V4.87243H48.2646V2.57852Z" fill="#13131B"/>
    <path d="M48.2646 7.16443H45.9707V9.45834H48.2646V7.16443Z" fill="#2E4FFE"/>
    <path d="M50.5556 2.57852H48.2617V4.87243H50.5556V2.57852Z" fill="#4053F6"/>
    <path d="M52.8506 0.2836H50.5566V2.57751H52.8506V0.2836Z" fill="#100C0A"/>
    <path d="M55.1435 0.2836H52.8496V2.57751H55.1435V0.2836Z" fill="#100E0A"/>
    <path d="M57.4384 0.2836H55.1445V2.57751H57.4384V0.2836Z" fill="#12100A"/>
    <path d="M59.7295 0.2836H57.4355V2.57751H59.7295V0.2836Z" fill="#16110E"/>
    <path d="M52.8506 7.16443H50.5566V9.45834H52.8506V7.16443Z" fill="#2D52FF"/>
    <path d="M50.5556 4.87149H48.2617V9.45811H50.5556V4.87149Z" fill="#2D4EFB"/>
    <path d="M52.8506 2.57852H50.5566V7.16514H52.8506V2.57852Z" fill="#2A4DFA"/>
    <path d="M45.9697 11.7506H43.6758V14.0445H45.9697V11.7506Z" fill="#2B4BFE"/>
    <path d="M45.9697 14.0433H43.6758V16.3372H45.9697V14.0433Z" fill="#2848FD"/>
    <path d="M45.9697 16.3383H43.6758V18.6394H45.9697V16.3383Z" fill="#2442F9"/>
    <path d="M48.2646 9.4574H45.9707V11.7513H48.2646V9.4574Z" fill="#2C4CFF"/>
    <path d="M50.5556 9.4574H48.2617V11.7513H50.5556V9.4574Z" fill="#2B4BFF"/>
    <path d="M55.1435 7.16443H52.8496V9.45834H55.1435V7.16443Z" fill="#3045F5"/>
    <path d="M57.4384 7.16443H55.1445V9.45834H57.4384V7.16443Z" fill="#3141F5"/>
    <path d="M59.7295 7.16443H57.4355V9.45834H59.7295V7.16443Z" fill="#2143F3"/>
    <path d="M62.0244 7.16443H59.7305V9.45834H62.0244V7.16443Z" fill="#2744EA"/>
    <path d="M62.0244 9.4574H59.7305V11.7513H62.0244V9.4574Z" fill="#2741DE"/>
    <path d="M55.1435 4.86954H52.8496V7.16345H55.1435V4.86954Z" fill="#2A4BFA"/>
    <path d="M57.4384 4.87149H55.1445V7.1654H57.4384V4.87149Z" fill="#2949F6"/>
    <path d="M59.7295 4.86954H57.4355V7.16345H59.7295V4.86954Z" fill="#2747F4"/>
    <path d="M62.0244 4.87149H59.7305V7.1654H62.0244V4.87149Z" fill="#2945EE"/>
    <path d="M64.3174 7.16443H62.0234V9.45834H64.3174V7.16443Z" fill="#2641E9"/>
    <path d="M64.3174 9.4574H62.0234V11.7513H64.3174V9.4574Z" fill="#243EE9"/>
    <path d="M64.3174 11.7504H62.0234V14.0443H64.3174V11.7504Z" fill="#223CE7"/>
    <path d="M64.3174 4.87149H62.0234V7.1654H64.3174V4.87149Z" fill="#213DE7"/>
    <path d="M64.3174 16.3441H62.0234V18.638H64.3174V16.3441Z" fill="#2038E2"/>
    <path d="M64.3174 18.6371H62.0234V20.931H64.3174V18.6371Z" fill="#1F37E1"/>
    <path d="M64.3174 20.9301H62.0234V23.224H64.3174V20.9301Z" fill="#2134DE"/>
    <path d="M64.3174 23.223H62.0234V25.5169H64.3174V23.223Z" fill="#000750"/>
    <path d="M62.0244 11.7504H59.7305V14.0443H62.0244V11.7504Z" fill="#0E0E17"/>
    <path d="M71.1963 11.7426H68.9023V14.0497H71.1963V11.7426Z" fill="#0E0E17"/>
    <path d="M64.3174 25.5179H62.0234V27.8119H64.3174V25.5179Z" fill="#120F10"/>
    <path d="M64.3174 27.8109H62.0234V30.1048H64.3174V27.8109Z" fill="#100E14"/>
    <path d="M66.6103 30.1058H64.3164V32.3997H66.6103V30.1058Z" fill="#100E14"/>
    <path d="M66.6103 27.8109H64.3164V30.1048H66.6103V27.8109Z" fill="#000750"/>
    <path d="M68.9033 30.1058H66.6094V32.3913H68.9033V30.1058Z" fill="#070F2A"/>
    <path d="M66.6103 20.9301H64.3164V23.224H66.6103V20.9301Z" fill="#2137DD"/>
    <path d="M66.6103 23.223H64.3164V25.5169H66.6103V23.223Z" fill="#2038D9"/>
    <path d="M66.6103 25.5179H64.3164V27.8119H66.6103V25.5179Z" fill="#1C37D4"/>
    <path d="M68.9033 27.8109H66.6094V30.1048H68.9033V27.8109Z" fill="#1934E4"/>
    <path d="M68.9033 20.9301H66.6094V23.224H68.9033V20.9301Z" fill="#2036E1"/>
    <path d="M68.9033 23.223H66.6094V25.5169H68.9033V23.223Z" fill="#2036E1"/>
    <path d="M68.9033 25.5179H66.6094V27.8119H68.9033V25.5179Z" fill="#1F37E1"/>
    <path d="M71.1963 23.2172H68.9023V25.5111H71.1963V23.2172Z" fill="#1933DF"/>
    <path d="M71.1963 20.9242H68.9023V23.2181H71.1963V20.9242Z" fill="#1E36DF"/>
    <path d="M71.1963 14.0492H68.9023V16.3359H71.1963V14.0492Z" fill="#13195A"/>
    <path d="M71.1963 16.3363H68.9023V18.6302H71.1963V16.3363Z" fill="#2D39AA"/>
    <path d="M71.1963 18.6293H68.9023V20.9232H71.1963V18.6293Z" fill="#2D38B5"/>
    <path d="M71.1963 32.391H68.9023V34.6849H71.1963V32.391Z" fill="#0E080B"/>
    <path d="M71.1963 30.098H68.9023V32.3919H71.1963V30.098Z" fill="#2039E6"/>
    <path d="M71.1963 25.5121H68.9023V27.806H71.1963V25.5121Z" fill="#2038E2"/>
    <path d="M71.1963 27.8031H68.9023V30.097H71.1963V27.8031Z" fill="#2039E6"/>
    <path d="M73.4892 32.391H71.1953V34.6849H73.4892V32.391Z" fill="#000935"/>
    <path d="M73.4892 30.098H71.1953V32.3919H73.4892V30.098Z" fill="#223CE9"/>
    <path d="M73.4892 25.5121H71.1953V27.806H73.4892V25.5121Z" fill="#2737ED"/>
    <path d="M73.4892 23.2172H71.1953V25.5111H73.4892V23.2172Z" fill="#160D08"/>
    <path d="M80.3701 25.5316H78.0762V27.8255H80.3701V25.5316Z" fill="#100B07"/>
    <path d="M75.7822 25.5121H73.4883V27.8277H75.7822V25.5121Z" fill="#100F0D"/>
    <path d="M82.6631 23.2172H80.3691V25.5111H82.6631V23.2172Z" fill="#110F07"/>
    <path d="M73.4892 27.8031H71.1953V30.097H73.4892V27.8031Z" fill="#213BE8"/>
    <path d="M84.956 23.2172H82.6621V25.5111H84.956V23.2172Z" fill="#2C3FED"/>
    <path d="M87.249 27.8265H84.9551V30.1205H87.249V27.8265Z" fill="#2A48F8"/>
    <path d="M87.249 23.2386H84.9551V25.5326H87.249V23.2386Z" fill="#2746FF"/>
    <path d="M87.249 25.5316H84.9551V27.8255H87.249V25.5316Z" fill="#2947FF"/>
    <path d="M87.249 20.9457H84.9551V23.2396H87.249V20.9457Z" fill="#2444FE"/>
    <path d="M87.249 18.6449H84.9551V20.946H87.249V18.6449Z" fill="#233FF4"/>
    <path d="M91.8349 25.5316H89.541V27.8255H91.8349V25.5316Z" fill="#00081F"/>
    <path d="M84.956 20.9457H82.6621V23.2167H84.956V20.9457Z" fill="#00081F"/>
    <path d="M89.5439 27.8264H87.25V30.1203H89.5439V27.8264Z" fill="#3346EB"/>
    <path d="M89.5439 23.2406H87.25V25.5345H89.5439V23.2406Z" fill="#2746FF"/>
    <path d="M89.5439 25.5316H87.25V27.8255H89.5439V25.5316Z" fill="#2947FF"/>
    <path d="M89.5439 20.9457H87.25V23.2396H89.5439V20.9457Z" fill="#2444FE"/>
    <path d="M89.5439 18.6449H87.25V20.946H89.5439V18.6449Z" fill="#233FF4"/>
    <path d="M75.7822 32.4144H73.4883V34.7083H75.7822V32.4144Z" fill="#2E40D7"/>
    <path d="M78.0752 32.4144H75.7812V34.7083H78.0752V32.4144Z" fill="#2741EC"/>
    <path d="M80.3701 32.4144H78.0762V34.7083H80.3701V32.4144Z" fill="#3047EB"/>
    <path d="M82.6631 32.4144H80.3691V34.7083H82.6631V32.4144Z" fill="#112585"/>
    <path d="M84.956 32.4144H82.6621V34.7083H84.956V32.4144Z" fill="#120C17"/>
    <path d="M87.249 32.4144H84.9551V34.7083H87.249V32.4144Z" fill="#0D0E09"/>
    <path d="M75.7822 30.1176H73.4883V32.4115H75.7822V30.1176Z" fill="#233EED"/>
    <path d="M75.7822 27.8265H73.4883V30.1205H75.7822V27.8265Z" fill="#223DEC"/>
    <path d="M78.0752 27.8265H75.7812V32.4132H78.0752V27.8265Z" fill="#2540F3"/>
    <path d="M80.3701 27.8265H78.0762V32.4132H80.3701V27.8265Z" fill="#2542F6"/>
    <path d="M82.6631 27.764H80.3691V32.4134H82.6631V27.764Z" fill="#2644FA"/>
    <path d="M84.956 27.764H82.6621V32.4134H84.956V27.764Z" fill="#2846FC"/>
    <path d="M64.3174 14.0433H62.0234V16.3445H64.3174V14.0433Z" fill="#213AE4"/>
    <path d="M66.6103 7.16443H64.3164V9.45834H66.6103V7.16443Z" fill="#2641E9"/>
    <path d="M68.9033 7.16443H66.6094V9.45834H68.9033V7.16443Z" fill="#00051C"/>
    <path d="M71.1963 9.4574H68.9023V11.7513H71.1963V9.4574Z" fill="#120D0F"/>
    <path d="M68.903 9.4574H64.3164V11.7513H68.903V9.4574Z" fill="#223CE7"/>
    <path d="M68.903 11.7504H64.3164V14.0443H68.903V11.7504Z" fill="#2139E8"/>
    <path d="M68.903 14.0433H64.3164V16.3445H68.903V14.0433Z" fill="#2039E3"/>
    <path d="M68.903 16.3441H64.3164V18.638H68.903V16.3441Z" fill="#2039E2"/>
    <path d="M68.903 18.6371H64.3164V20.931H68.903V18.6371Z" fill="#1F37E1"/>
    <path d="M66.6103 4.87149H64.3164V7.1654H66.6103V4.87149Z" fill="#13206F"/>
    <path d="M64.3174 2.57852H62.0234V4.87243H64.3174V2.57852Z" fill="#0D0E13"/>
    <path d="M66.6103 2.57852H64.3164V4.87243H66.6103V2.57852Z" fill="#0A1017"/>
    <path d="M55.1435 2.57852H52.8496V4.87243H55.1435V2.57852Z" fill="#2B4CFB"/>
    <path d="M57.4384 2.57852H55.1445V4.87243H57.4384V2.57852Z" fill="#2949F6"/>
    <path d="M59.7295 2.57852H57.4355V4.87243H59.7295V2.57852Z" fill="#2747F4"/>
    <path d="M62.0244 2.57852H59.7305V4.87243H62.0244V2.57852Z" fill="#3846F5"/>
    <path d="M48.2646 11.7504H45.9707V14.0443H48.2646V11.7504Z" fill="#2B4BFE"/>
    <path d="M48.2646 14.0433H45.9707V16.3372H48.2646V14.0433Z" fill="#2848FD"/>
    <path d="M48.2646 16.3363H45.9707V18.6375H48.2646V16.3363Z" fill="#2641F8"/>
    <path d="M45.9697 18.6371H43.6758V20.931H45.9697V18.6371Z" fill="#223DEF"/>
    <path d="M45.9697 20.932H43.6758V23.2259H45.9697V20.932Z" fill="#1D35D6"/>
    <path d="M45.9697 23.225H43.6758V25.5189H45.9697V23.225Z" fill="#162AAF"/>
    <path d="M45.9697 25.5178H43.6758V27.8117H45.9697V25.5178Z" fill="#121F7D"/>
    <path d="M45.9697 27.8109H43.6758V30.1048H45.9697V27.8109Z" fill="#10165A"/>
    <path d="M48.2646 20.9301H45.9707V23.224H48.2646V20.9301Z" fill="#1C2EBF"/>
    <path d="M48.2646 23.223H45.9707V25.5169H48.2646V23.223Z" fill="#13238B"/>
    <path d="M48.2646 25.5179H45.9707V27.8119H48.2646V25.5179Z" fill="#11195D"/>
    <path d="M48.2646 27.8109H45.9707V30.1048H48.2646V27.8109Z" fill="#10133D"/>
    <path d="M45.9697 30.1058H43.6758V32.3997H45.9697V30.1058Z" fill="#0D0E10"/>
    <path d="M48.2646 18.6371H45.9707V20.931H48.2646V18.6371Z" fill="#223AE0"/>
    <path d="M89.542 18.6449H91.8359V16.351H89.542V18.6449Z" fill="#233EF3"/>
    <path d="M89.542 16.35H91.8359V14.0344H89.542V16.35Z" fill="#2134E7"/>
    <path d="M87.2471 18.6449H89.541V16.351H87.2471V18.6449Z" fill="#223DEF"/>
    <path d="M91.8349 23.2426H89.541V25.5365H91.8349V23.2426Z" fill="#2947FF"/>
    <path d="M91.8349 20.9496H89.541V23.2435H91.8349V20.9496Z" fill="#264BFF"/>
    <path d="M91.8349 18.6449H89.541V20.9509H91.8349V18.6449Z" fill="#2543FC"/>
    <path d="M89.542 18.6469H91.8359V16.3529H89.542V18.6469Z" fill="#233EF3"/>
    <path d="M91.835 16.3558H94.1289V14.0619H91.835V16.3558Z" fill="#100F0C"/>
    <path d="M94.1298 23.2484H91.8359V25.5423H94.1298V23.2484Z" fill="#0F0E12"/>
    <path d="M94.1298 20.9554H91.8359V23.2494H94.1298V20.9554Z" fill="#0F0E13"/>
    <path d="M94.1298 18.6449H91.8359V20.9569H94.1298V18.6449Z" fill="#0D1308"/>
    <path d="M91.835 18.6547H94.1289V16.3608H91.835V18.6547Z" fill="#0B100D"/>
    <path d="M87.2471 16.3519H89.541V14.0363H87.2471V16.3519Z" fill="#1D35D6"/>
    <path d="M84.9561 16.35H87.25V14.0344H84.9561V16.35Z" fill="#1C2EBF"/>
    <path d="M84.9561 18.6449H87.25V16.351H84.9561V18.6449Z" fill="#223AE0"/>
    <path d="M84.956 18.6293H82.6621V20.9425H84.956V18.6293Z" fill="#0C140D"/>
    <path d="M82.6612 16.348H84.9551V14.0541H82.6612V16.348Z" fill="#0D1413"/>
    <path d="M82.6612 18.641H84.9551V16.3471H82.6612V18.641Z" fill="#0F1208"/>
    <path d="M73.4892 20.9418H71.1953V23.2176H73.4892V20.9418Z" fill="#0D1010"/>
    <path d="M73.4892 18.6293H71.1953V20.9352H73.4892V18.6293Z" fill="#0A1014"/>
    <path d="M71.1944 16.3422H73.4883V14.0483H71.1944V16.3422Z" fill="#0F100A"/>
    <path d="M71.1944 18.6351H73.4883V16.3412H71.1944V18.6351Z" fill="#0E0E15"/>
    <path d="M50.5556 20.9457H48.2617V23.2396H50.5556V20.9457Z" fill="#161114"/>
    <path d="M50.5556 14.0433H48.2617V16.3372H50.5556V14.0433Z" fill="#161114"/>
    <path d="M50.5556 23.2386H48.2617V25.5326H50.5556V23.2386Z" fill="#13131A"/>
    <path d="M50.5556 16.3363H48.2617V18.6302H50.5556V16.3363Z" fill="#0F0B12"/>
    <path d="M50.5556 18.6293H48.2617V20.9449H50.5556V18.6293Z" fill="#0E0B12"/>
    <path d="M50.5556 25.5179H48.2617V27.8119H50.5556V25.5179Z" fill="#0F123D"/>
    <path d="M50.5556 27.8109H48.2617V30.1048H50.5556V27.8109Z" fill="#0C0F26"/>
    <path d="M48.2646 30.1058H45.9707V32.3997H48.2646V30.1058Z" fill="#0C0F28"/>
    <path d="M50.5556 30.1058H48.2617V32.3997H50.5556V30.1058Z" fill="#0E0E1B"/>
    <path d="M52.8506 25.5179H50.5566V27.8119H52.8506V25.5179Z" fill="#0E0D15"/>
    <path d="M55.1435 27.8264H52.8496V30.1203H55.1435V27.8264Z" fill="#0E0E0E"/>
    <path d="M55.1435 30.1058H52.8496V32.3997H55.1435V30.1058Z" fill="#0E0E0E"/>
    <path d="M52.8506 27.8109H50.5566V30.1193H52.8506V27.8109Z" fill="#0D0D12"/>
    <path d="M52.8506 30.1176H50.5566V32.4115H52.8506V30.1176Z" fill="#0E0D12"/>
    <path d="M52.8506 32.3969H50.5566V34.6908H52.8506V32.3969Z" fill="#0E0E0E"/>
    <path d="M11.5439 16.3519H9.25V32.4105H11.5439V16.3519Z" fill="#011233"/>
    <path d="M11.5439 14.0883H9.25V16.3508H11.5439V14.0883Z" fill="#000E8E"/>
    <path d="M13.8311 2.5043H11.5625V4.87058H13.8311V2.5043Z" fill="#2E3DBC"/>
    <path d="M13.8509 20.8793H11.5449V23.2455H13.8509V20.8793Z" fill="#2E3DBC"/>
    <path d="M20.7221 20.9418H18.4414V23.2224H20.7221V20.9418Z" fill="#2533DB"/>
    <path d="M25.3099 25.5238H23.0293V27.8044H25.3099V25.5238Z" fill="#01102F"/>
    <path d="M27.599 18.6449H25.3184V20.9255H27.599V18.6449Z" fill="#090E19"/>
    <path d="M27.5888 16.3519H25.2949V18.6458H27.5888V16.3519Z" fill="#011233"/>
    <path d="M25.3099 27.8051H23.0293V30.0857H25.3099V27.8051Z" fill="#110C19"/>
    <path d="M23.028 23.1683H18.4414V25.5153H23.028V23.1683Z" fill="#2037DF"/>
    <path d="M16.1497 27.7875H13.8438V30.1537H16.1497V27.7875Z" fill="#253AC0"/>
    <path d="M16.1497 30.1527H13.8438V32.4092H16.1497V30.1527Z" fill="#040F22"/>
    <path d="M13.8509 4.87149H11.5449V16.3965H13.8509V4.87149Z" fill="#1B39E2"/>
    <path d="M16.1384 11.764H13.8457V14.035H16.1384V11.764Z" fill="#1A38E0"/>
    <path d="M16.1384 9.47107H13.8457V11.7638H16.1384V9.47107Z" fill="#2837AA"/>
    <path d="M16.1384 14.0355H13.8457V16.3584H16.1384V14.0355Z" fill="#1A34DA"/>
    <path d="M18.4314 16.3558H16.1387V18.6485H18.4314V16.3558Z" fill="#293AA2"/>
    <path d="M18.4314 18.6488H16.1387V20.9415H18.4314V18.6488Z" fill="#2137EC"/>
    <path d="M13.8512 16.3558H11.5488V18.6485H13.8512V16.3558Z" fill="#1C3BD9"/>
    <path d="M13.8609 18.6488H11.5586V20.9391H13.8609V18.6488Z" fill="#1B33E3"/>
    <path d="M16.1375 16.3558H13.8496V18.6485H16.1375V16.3558Z" fill="#1E38DE"/>
    <path d="M16.1423 18.6488H13.8496V20.9415H16.1423V18.6488Z" fill="#1B3AD7"/>
    <path d="M16.1509 20.9398H13.8594V27.7878H16.1509V20.9398Z" fill="#2036E2"/>
    <path d="M18.4419 20.9418H16.1504V27.7258H18.4419V20.9418Z" fill="#1F37E1"/>
    <path d="M18.4419 27.7269H16.1504V30.1547H18.4419V27.7269Z" fill="#2234E7"/>
    <path d="M18.4419 30.1527H16.1504V32.4092H18.4419V30.1527Z" fill="#2134EB"/>
    <path d="M20.7225 32.4105H16.1504V34.7177H20.7225V32.4105Z" fill="#2235E0"/>
    <path d="M23.0282 25.514H18.4355V32.4621H23.0282V25.514Z" fill="#1F37E1"/>
    <path d="M25.3099 23.2074H23.0293V25.5254H25.3099V23.2074Z" fill="#2134E0"/>
    <path d="M25.3099 20.9261H23.0293V23.2068H25.3099V20.9261Z" fill="#1B3AE4"/>
    <path d="M25.3171 18.6449H23.0195V20.9255H25.3171V18.6449Z" fill="#2139E8"/>
    <path d="M23.0267 18.6488H20.7207V23.2065H23.0267V18.6488Z" fill="#2134E0"/>
    <path d="M23.0351 16.3558H20.7207V18.6485H23.0351V16.3558Z" fill="#1F36E3"/>
    <path d="M23.087 14.0629H20.7207V16.3556H23.087V14.0629Z" fill="#2439E1"/>
    <path d="M23.0134 11.7699H20.7207V14.0626H23.0134V11.7699Z" fill="#0A1144"/>
    <path d="M25.3142 4.88126H23.0215V7.17396H25.3142V4.88126Z" fill="#0F175F"/>
    <path d="M25.3142 2.58829H23.0215V4.88099H25.3142V2.58829Z" fill="#140E16"/>
    <path d="M25.3142 7.17615H23.0215V9.46885H25.3142V7.17615Z" fill="#2332EE"/>
    <path d="M25.3142 9.46912H23.0215V11.7618H25.3142V9.46912Z" fill="#1D39D9"/>
    <path d="M25.3142 11.7601H23.0215V14.0625H25.3142V11.7601Z" fill="#1D38E1"/>
    <path d="M20.7204 11.7699H18.4277V14.0626H20.7204V11.7699Z" fill="#100E14"/>
    <path d="M25.3142 14.059H23.0215V16.3517H25.3142V14.059Z" fill="#1F37E1"/>
    <path d="M27.6072 14.059H25.3145V16.3517H27.6072V14.059Z" fill="#000E8E"/>
    <path d="M29.9093 14.057H27.6094V16.3497H29.9093V14.057Z" fill="#1E34F0"/>
    <path d="M29.9093 16.35H27.6094V18.6499H29.9093V16.35Z" fill="#1B3ADB"/>
    <path d="M20.7204 16.3558H18.4277V18.6485H20.7204V16.3558Z" fill="#170714"/>
    <path d="M20.7219 18.6488H18.4316V20.9391H20.7219V18.6488Z" fill="#000C2B"/>
    <path d="M25.3159 16.35H23.0195V18.6475H25.3159V16.35Z" fill="#1F37DE"/>
    <path d="M29.9093 18.6488H27.6094V32.3363H29.9093V18.6488Z" fill="#1C37E5"/>
    <path d="M29.9093 32.3363H27.6094V34.7026H29.9093V32.3363Z" fill="#2433E4"/>
    <path d="M32.1672 2.58829H25.3145V14.088H32.1672V2.58829Z" fill="#1F37E1"/>
    <path d="M34.4908 4.87149H32.168V16.3507H34.4908V4.87149Z" fill="#1F37E1"/>
    <path d="M32.1671 14.0883H29.9082V16.3496H32.1671V14.0883Z" fill="#1F37E1"/>
    <path d="M34.49 16.35H29.9082V32.3374H34.49V16.35Z" fill="#2136E1"/>
    <path d="M32.1322 32.3363H29.9082V34.7026H32.1322V32.3363Z" fill="#1C37E5"/>
    <path d="M36.865 2.58829H34.4902V32.3368H36.865V2.58829Z" fill="#06111D"/>
    <path d="M23.0267 32.4105H20.7207V34.7165H23.0267V32.4105Z" fill="#1C2899"/>
    <path d="M89.542 11.7426H91.8359V9.44864H89.542V11.7426Z" fill="#1A2092"/>
    <path d="M87.2471 11.7426H89.541V9.44864H87.2471V11.7426Z" fill="#121F7D"/>
    <path d="M84.9561 11.7426H87.25V9.44864H84.9561V11.7426Z" fill="#11195D"/>
    <path d="M82.6612 11.7426H84.9551V9.44864H82.6612V11.7426Z" fill="#0F123D"/>
    <path d="M87.2471 9.44958H89.541V7.15567H87.2471V9.44958Z" fill="#151C62"/>
    <path d="M84.9561 9.44983H87.25V7.15592H84.9561V9.44983Z" fill="#0E1647"/>
    <path d="M82.6612 9.44958H84.9551V7.15567H82.6612V9.44958Z" fill="#0E1131"/>
    <path d="M80.3682 9.44958H82.6621V7.15567H80.3682V9.44958Z" fill="#0E0F1C"/>
    <path d="M84.9561 7.16833H87.25V4.87442H84.9561V7.16833Z" fill="#0E1131"/>
    <path d="M82.6612 7.16833H84.9551V4.87442H82.6612V7.16833Z" fill="#0E0F1C"/>
    <path d="M78.0752 9.44958H80.3691V7.15567H78.0752V9.44958Z" fill="#0D0D0F"/>
    <path d="M80.3682 11.7426H82.6621V9.44864H80.3682V11.7426Z" fill="#110D11"/>
    <path d="M80.3682 14.0355H82.6621V11.7416H80.3682V14.0355Z" fill="#0E0F12"/>
    <path d="M78.0752 7.15662H80.3691V2.59291H78.0752V7.15662Z" fill="#0E0E10"/>
    <path d="M80.3682 7.15662H82.6621V2.59291H80.3682V7.15662Z" fill="#0D0E11"/>
    <path d="M89.542 14.0375H91.8359V11.7436H89.542V14.0375Z" fill="#142EC0"/>
    <path d="M87.2471 14.0355H89.541V11.7416H87.2471V14.0355Z" fill="#182DAA"/>
    <path d="M84.9561 14.0375H87.25V11.7436H84.9561V14.0375Z" fill="#172599"/>
    <path d="M82.6612 14.0355H84.9551V11.7416H82.6612V14.0355Z" fill="#131C4F"/>
    <path d="M112.487 27.8597H114.773V25.5586H112.487V27.8597Z" fill="#0E0D19"/>
    <path d="M114.774 27.8519H117.068V25.558H114.774V27.8519Z" fill="#2035E7"/>
    <path d="M110.209 27.8597H112.488V25.5586H110.209V27.8597Z" fill="#120F0D"/>
    <path d="M107.928 27.86H110.207V25.5588H107.928V27.86Z" fill="#100E0F"/>
    <path d="M98.711 2.5043H96.3809V34.7059H98.711V2.5043Z" fill="#110C11"/>
    <path d="M105.69 7.23669H98.7109V32.3346H105.69V7.23669Z" fill="#1F37E1"/>
    <path d="M114.574 32.3344H101.076V34.7055H114.574V32.3344Z" fill="#1F37E1"/>
    <path d="M119.306 27.8519H105.689V32.3348H119.306V27.8519Z" fill="#1F37E1"/>
    <path d="M107.928 9.45544H105.689V27.8514H107.928V9.45544Z" fill="#090D28"/>
    <path d="M121.729 23.219H117.068V25.5201H121.729V23.219Z" fill="#1D38DE"/>
    <path d="M124.026 14.059H121.672V29.9668H124.026V14.059Z" fill="#2039DE"/>
    <path d="M121.8 14.0592H119.434V16.4255H121.8V14.0592Z" fill="#2037DA"/>
    <path d="M121.8 20.8519H119.434V23.2182H121.8V20.8519Z" fill="#1F38DB"/>
    <path d="M121.8 16.3402H119.434V20.8521H121.8V16.3402Z" fill="#2036DF"/>
    <path d="M126.324 14.059H124.025V25.5575H126.324V14.059Z" fill="#1C37E8"/>
    <path d="M124.026 11.6918H117.068V14.058H124.026V11.6918Z" fill="#2039DE"/>
    <path d="M126.324 12.0433H124.025V14.4181H126.324V12.0433Z" fill="#1538DC"/>
    <path d="M126.327 9.67615H124.064V12.0424H126.327V9.67615Z" fill="#2837BF"/>
    <path d="M110.188 7.09021H105.689V9.45649H110.188V7.09021Z" fill="#1F37E1"/>
    <path d="M112.196 7.09021H109.83V9.45649H112.196V7.09021Z" fill="#2238DA"/>
    <path d="M114.562 7.09021H112.195V9.45649H114.562V7.09021Z" fill="#1C35EA"/>
    <path d="M118.021 7.09021H114.562V9.45649H118.021V7.09021Z" fill="#1F37E3"/>
    <path d="M121.697 7.17236H117.068V9.67733H121.697V7.17236Z" fill="#1F37E3"/>
    <path d="M119.331 4.86954H116.965V7.31059H119.331V4.86954Z" fill="#2036E5"/>
    <path d="M114.702 2.5043H101.076V7.23565H114.702V2.5043Z" fill="#1F37E1"/>
    <path d="M116.966 2.5043H114.6V4.94535H116.966V2.5043Z" fill="#1F34E4"/>
    <path d="M116.966 4.87149H114.6V7.31254H116.966V4.87149Z" fill="#2036E5"/>
    <path d="M137.819 32.3402H135.453V34.7065H137.819V32.3402Z" fill="#2832C5"/>
    <path d="M140.187 32.3402H137.82V34.7065H140.187V32.3402Z" fill="#2236DD"/>
    <path d="M142.554 32.3402H140.188V34.7065H142.554V32.3402Z" fill="#2333E8"/>
    <path d="M140.171 29.973H137.805V32.3393H140.171V29.973Z" fill="#2035E4"/>
    <path d="M142.536 29.973H140.17V32.3393H142.536V29.973Z" fill="#2035E4"/>
    <path d="M140.171 27.6078H137.805V29.9741H140.171V27.6078Z" fill="#2936C1"/>
    <path d="M142.536 27.6078H140.17V29.9741H142.536V27.6078Z" fill="#2936C1"/>
    <path d="M135.333 20.5101H132.967V22.8764H135.333V20.5101Z" fill="#2533EA"/>
    <path d="M137.698 20.5101H135.332V22.8764H137.698V20.5101Z" fill="#2533EA"/>
    <path d="M135.333 11.684H132.967V14.0502H135.333V11.684Z" fill="#1C35F3"/>
    <path d="M137.698 11.684H135.332V14.0502H137.698V11.684Z" fill="#2138D6"/>
    <path d="M135.333 14.0511H132.967V20.5108H135.333V14.0511Z" fill="#1F37E1"/>
    <path d="M137.698 14.0511H135.332V20.5108H137.698V14.0511Z" fill="#1F37E1"/>
    <path d="M143.666 22.8773H140.064V25.2436H143.666V22.8773Z" fill="#1F37E0"/>
    <path d="M147.267 22.8773H143.666V25.2436H147.267V22.8773Z" fill="#1F37E0"/>
    <path d="M143.719 20.5101H140.064V22.8764H143.719V20.5101Z" fill="#1F37E0"/>
    <path d="M147.32 20.5101H143.719V22.8764H147.32V20.5101Z" fill="#1F37E0"/>
    <path d="M144.901 29.973H142.535V32.3393H144.901V29.973Z" fill="#1F37E1"/>
    <path d="M147.269 29.973H144.902V32.3393H147.269V29.973Z" fill="#1F37E1"/>
    <path d="M144.901 27.6078H142.535V29.9741H144.901V27.6078Z" fill="#1F37E1"/>
    <path d="M147.269 27.6078H144.902V29.9741H147.269V27.6078Z" fill="#1F37E1"/>
    <path d="M149.636 29.973H147.27V32.3393H149.636V29.973Z" fill="#2638E0"/>
    <path d="M149.636 27.6078H147.27V29.9741H149.636V27.6078Z" fill="#1C3AD6"/>
    <path d="M151.999 29.973H149.633V32.3393H151.999V29.973Z" fill="#0F0A18"/>
    <path d="M151.999 27.6078H149.633V29.9741H151.999V27.6078Z" fill="#1E30A6"/>
    <path d="M149.636 25.2426H147.27V27.6088H149.636V25.2426Z" fill="#2036E2"/>
    <path d="M147.269 25.2426H144.902V27.6088H147.269V25.2426Z" fill="#1D39D8"/>
    <path d="M144.901 25.2426H142.535V27.6088H144.901V25.2426Z" fill="#171200"/>
    <path d="M137.819 25.2426H135.453V27.6088H137.819V25.2426Z" fill="#0D0D0D"/>
    <path d="M135.517 25.2426H133.15V27.6088H135.517V25.2426Z" fill="#0D0D0D"/>
    <path d="M142.536 25.2426H137.805V27.6088H142.536V25.2426Z" fill="#140E11"/>
    <path d="M151.999 25.2426H149.633V27.6088H151.999V25.2426Z" fill="#2036E2"/>
    <path d="M142.431 14.0511H140.064V16.4174H142.431V14.0511Z" fill="#050F53"/>
    <path d="M140.065 14.0511H137.699V16.4174H140.065V14.0511Z" fill="#040C4D"/>
    <path d="M144.796 14.0511H142.43V16.4174H144.796V14.0511Z" fill="#162D72"/>
    <path d="M147.163 14.0511H144.797V16.4174H147.163V14.0511Z" fill="#2036E2"/>
    <path d="M149.528 14.0511H147.162V16.4174H149.528V14.0511Z" fill="#1A3BDB"/>
    <path d="M149.528 16.4164H147.162V18.7827H149.528V16.4164Z" fill="#091018"/>
    <path d="M149.636 22.8773H147.27V25.2436H149.636V22.8773Z" fill="#1D39DB"/>
    <path d="M132.968 18.7816H130.602V21.1479H132.968V18.7816Z" fill="#1C3AD6"/>
    <path d="M132.968 16.4164H130.602V18.7827H132.968V16.4164Z" fill="#2036E2"/>
    <path d="M130.601 16.4164H128.234V18.7827H130.601V16.4164Z" fill="#0E0E19"/>
    <path d="M130.601 14.0511H128.234V16.4174H130.601V14.0511Z" fill="#140D0B"/>
    <path d="M132.968 14.0511H130.602V16.4174H132.968V14.0511Z" fill="#1D39DB"/>
    <path d="M149.636 20.5101H147.27V22.8764H149.636V20.5101Z" fill="#313DD4"/>
    <path d="M151.999 22.8773H149.633V25.2436H151.999V22.8773Z" fill="#162D72"/>
    <path d="M144.917 32.3402H142.551V34.7065H144.917V32.3402Z" fill="#2030C9"/>
    <path d="M147.251 32.3402H144.885V34.7065H147.251V32.3402Z" fill="#0A1123"/>
    <path d="M149.634 32.3402H147.252V34.7065H149.634V32.3402Z" fill="#141504"/>
    <path d="M140.064 22.8764V20.5101H137.698V22.8764H140.064Z" fill="#1D39DB"/>
    <path d="M140.064 25.2436V22.8773H137.698V25.2436H140.064Z" fill="#162D72"/>
    <path d="M142.431 18.1449H140.064V20.5112H142.431V18.1449Z" fill="#2237D8"/>
    <path d="M140.065 18.1449H137.699V20.5112H140.065V18.1449Z" fill="#1C39DE"/>
    <path d="M144.796 18.1449H142.43V20.5112H144.796V18.1449Z" fill="#1F238D"/>
    <path d="M142.431 11.684H140.064V14.0502H142.431V11.684Z" fill="#2137DD"/>
    <path d="M140.065 11.684H137.699V14.0502H140.065V11.684Z" fill="#2037DE"/>
    <path d="M144.796 11.684H142.43V14.0502H144.796V11.684Z" fill="#2036DE"/>
    <path d="M147.163 11.684H144.797V14.0502H147.163V11.684Z" fill="#2137D9"/>
    <path d="M149.528 11.684H147.162V14.0502H149.528V11.684Z" fill="#1C37E6"/>
    <path d="M137.698 9.31873H135.332V11.685H137.698V9.31873Z" fill="#050F53"/>
    <path d="M142.431 9.31873H140.064V11.685H142.431V9.31873Z" fill="#2838D3"/>
    <path d="M140.065 9.31873H137.699V11.685H140.065V9.31873Z" fill="#2A38C3"/>
    <path d="M144.796 9.31873H142.43V11.685H144.796V9.31873Z" fill="#2835D8"/>
    <path d="M147.163 9.31873H144.797V11.685H147.163V9.31873Z" fill="#0F1551"/>
    <path d="M149.528 9.31873H147.162V11.685H149.528V9.31873Z" fill="#11100C"/>
    <path d="M135.333 9.31873H132.967V11.685H135.333V9.31873Z" fill="#11100C"/>
    <path d="M132.968 11.684H130.602V14.0502H132.968V11.684Z" fill="#0E0D11"/>
    <path d="M151.896 14.0511H149.529V16.4174H151.896V14.0511Z" fill="#100D10"/>
    <path d="M151.896 11.684H149.529V14.0502H151.896V11.684Z" fill="#0D1020"/>
    <path d="M82.6631 25.5121H80.3691V27.806H82.6631V25.5121Z" fill="#3541B9"/>
    <path d="M84.956 25.5121H82.6621V27.806H84.956V25.5121Z" fill="#2844FF"/>
    <path d="M87.249 30.1176H84.9551V32.4115H87.249V30.1176Z" fill="#3847E9"/>
  </g>
  <defs>
    <clipPath id="clip0_12174_119354">
      <rect width="152" height="34.4328" fill="white" transform="translate(0 0.2836)"/>
    </clipPath>
  </defs>
</svg>