<svg width="50" height="51" viewBox="0 0 50 51" fill="none" xmlns="http://www.w3.org/2000/svg">
<g filter="url(#filter0_d_12650_13977)">
<path d="M9 2.43262V5.43262H6V8.43262H3V36.4326H6V39.4326H9V42.4326H12V2.43262H9Z" fill="#3D3D3D"/>
</g>
<path d="M9 5.43262V2.43262H12V5.43262V8.43262H9V11.4326H6V33.4326H9V36.4326H12V39.4326V42.4326H9V39.4326H6V36.4326H3V8.43262H6V5.43262H9Z" fill="#3D3D3D"/>
<g filter="url(#filter1_d_12650_13977)">
<rect width="22" height="40" transform="translate(12 2.43262)" fill="#3D3D3D"/>
<rect x="12" y="2.43262" width="22" height="3" fill="#3D3D3D"/>
<g clip-path="url(#clip0_12650_13977)">
<mask id="mask0_12650_13977" style="mask-type:luminance" maskUnits="userSpaceOnUse" x="12" y="11" width="22" height="23">
<path d="M12 11.4326H34V33.4326H12V11.4326Z" fill="white"/>
</mask>
<g mask="url(#mask0_12650_13977)">
<path d="M28.75 13.3701H31.8171L25.1171 21.0473L33 31.4958H26.8286L21.9914 25.1601L16.4629 31.4958H13.3929L20.5586 23.2815L13 13.3715H19.3286L23.6943 19.1615L28.75 13.3701ZM27.6714 29.6558H29.3714L18.4 15.1144H16.5771L27.6714 29.6558Z" fill="#B2B2B2"/>
</g>
</g>
<rect x="12" y="39.4326" width="22" height="3" fill="#3D3D3D"/>
</g>
<g filter="url(#filter2_d_12650_13977)">
<path d="M37 42.4326V39.4326H40V36.4326H43V8.43262H40V5.43262H37V2.43262H34V42.4326H37Z" fill="#3D3D3D"/>
</g>
<path d="M37 39.4326V42.4326H34V39.4326V36.4326H37V33.4326H40V11.4326H37V8.43262H34V5.43262V2.43262H37V5.43262H40V8.43262H43V36.4326H40V39.4326H37Z" fill="#3D3D3D"/>
<defs>
<filter id="filter0_d_12650_13977" x="3" y="2.43262" width="12" height="43" filterUnits="userSpaceOnUse" color-interpolation-filters="sRGB">
<feFlood flood-opacity="0" result="BackgroundImageFix"/>
<feColorMatrix in="SourceAlpha" type="matrix" values="0 0 0 0 0 0 0 0 0 0 0 0 0 0 0 0 0 0 127 0" result="hardAlpha"/>
<feOffset dx="3" dy="3"/>
<feComposite in2="hardAlpha" operator="out"/>
<feColorMatrix type="matrix" values="0 0 0 0 0.164682 0 0 0 0 0.164682 0 0 0 0 0.164682 0 0 0 1 0"/>
<feBlend mode="normal" in2="BackgroundImageFix" result="effect1_dropShadow_12650_13977"/>
<feBlend mode="normal" in="SourceGraphic" in2="effect1_dropShadow_12650_13977" result="shape"/>
</filter>
<filter id="filter1_d_12650_13977" x="2" y="2.43262" width="45" height="43" filterUnits="userSpaceOnUse" color-interpolation-filters="sRGB">
<feFlood flood-opacity="0" result="BackgroundImageFix"/>
<feColorMatrix in="SourceAlpha" type="matrix" values="0 0 0 0 0 0 0 0 0 0 0 0 0 0 0 0 0 0 127 0" result="hardAlpha"/>
<feOffset dx="3" dy="3"/>
<feComposite in2="hardAlpha" operator="out"/>
<feColorMatrix type="matrix" values="0 0 0 0 0.164682 0 0 0 0 0.164682 0 0 0 0 0.164682 0 0 0 1 0"/>
<feBlend mode="normal" in2="BackgroundImageFix" result="effect1_dropShadow_12650_13977"/>
<feBlend mode="normal" in="SourceGraphic" in2="effect1_dropShadow_12650_13977" result="shape"/>
</filter>
<filter id="filter2_d_12650_13977" x="34" y="2.43262" width="12" height="43" filterUnits="userSpaceOnUse" color-interpolation-filters="sRGB">
<feFlood flood-opacity="0" result="BackgroundImageFix"/>
<feColorMatrix in="SourceAlpha" type="matrix" values="0 0 0 0 0 0 0 0 0 0 0 0 0 0 0 0 0 0 127 0" result="hardAlpha"/>
<feOffset dx="3" dy="3"/>
<feComposite in2="hardAlpha" operator="out"/>
<feColorMatrix type="matrix" values="0 0 0 0 0.164682 0 0 0 0 0.164682 0 0 0 0 0.164682 0 0 0 1 0"/>
<feBlend mode="normal" in2="BackgroundImageFix" result="effect1_dropShadow_12650_13977"/>
<feBlend mode="normal" in="SourceGraphic" in2="effect1_dropShadow_12650_13977" result="shape"/>
</filter>
<clipPath id="clip0_12650_13977">
<rect width="22" height="22" fill="white" transform="translate(12 11.4326)"/>
</clipPath>
</defs>
</svg>
